[Header]
FileType HTR
DataType HTRS
FileVersion 1
NumSegments 22
NumFrames 4
DataFrameRate 24
EulerRotationOrder ZYX
CalibrationUnits mm
RotationUnits Degrees
GlobalAxisofGravity Y
BoneLengthAxis Y
ScaleFactor 1.0
[SegmentNames&Hierarchy]
reference	GLOBAL
Hips	reference
Spine	Hips
Spine1	Spine
Neck	Spine1
Head	Neck
LeftShoulder	Spine1
LeftArm	LeftShoulder
LeftForeArm	LeftArm
LeftHand	LeftForeArm
RightShoulder	Spine1
RightArm	RightShoulder
RightForeArm	RightArm
RightHand	RightForeArm
LeftUpLeg	Hips
LeftLeg	LeftUpLeg
LeftFoot	LeftLeg
LeftToeBase	LeftFoot
RightUpLeg	Hips
RightLeg	RightUpLeg
RightFoot	RightLeg
RightToeBase	RightFoot
[BasePosition]
reference	0	0	0	0	0	0	1
Hips	0	0	0	0	0	0	1
Spine	0	0	0	0	-0	90	1
Spine1	0	0	0	0	0	0	1
Neck	0	0	0	-7.352430803	-7.352430803	90	1
Head	0	0	0	0	-0	90	1
LeftShoulder	0	0	0	0	0	0	1
LeftArm	0	0	0	0	0	0	1
LeftForeArm	0	0	0	0	0	0	1
LeftHand	0	0	0	0	0	0	1
RightShoulder	0	0	0	0	-0	180	1
RightArm	0	0	0	0	-0	180	1
RightForeArm	0	0	0	0	-0	180	1
RightHand	0	0	0	0	-0	180	1
LeftUpLeg	0	0	0	0	-0	-90	1
LeftLeg	0	0	0	0	-0	-90	1
LeftFoot	0	0	0	66.57150701	-66.57150701	-90	1
LeftToeBase	0	0	0	0	-90	0	1
RightUpLeg	0	0	0	0	-0	-90	1
RightLeg	0	0	0	0	-0	-90	1
RightFoot	0	0	0	66.57150701	-66.57150701	-90	1
RightToeBase	0	0	0	0	-90	0	1
[reference]
10	0	0	0	0	-0	0	1.0
11	0	0	0	0	-0	0	1.0
12	0	0	0	0	-0	0	1.0
13	0	0	0	0	-0	0	1.0
[Hips]
10	0.4207000136	8.379309654	0.2787799835	-12.84118462	-105.6525497	9.217939377	1.0
11	0.4207000136	8.379309654	0.2787799835	-12.83454609	-105.6693726	9.245436668	1.0
12	0.4207000136	8.379309654	0.2787799835	-12.78572845	-105.6788254	9.222920418	1.0
13	0.4207000136	8.379309654	0.2787799835	-12.81036377	-105.6774368	9.263412476	1.0
[Spine]
10	0	0.7478299737	0	-6.5945611	0.5100571513	-87.52675629	1.0
11	0	0.7478299737	0	-6.579432964	0.5117108822	-87.51714325	1.0
12	0	0.7478299737	0	-6.586385727	0.5178629756	-87.5138855	1.0
13	0	0.7478299737	0	-6.601756096	0.5242012739	-87.51251984	1.0
[Spine1]
10	0	2.049309969	0	10.39428711	0.3212314844	-2.202626228	1.0
11	0	2.049309969	0	10.42231655	0.3238742352	-2.231051207	1.0
12	0	2.049309969	0	10.44966507	0.326361686	-2.230244875	1.0
13	0	2.049309969	0	10.46246433	0.3286246955	-2.199983597	1.0
[Neck]
10	0	2.231709957	0	1.950023055	6.580187798	-85.20590973	1.0
11	0	2.231709957	0	1.973210096	6.561084747	-85.13841248	1.0
12	0	2.231709957	0	1.864421368	6.565785885	-85.14194489	1.0
13	0	2.231709957	0	1.820335746	6.568468571	-85.15996552	1.0
[Head]
10	0	1.413589954	0.1823999882	-6.364343643	-0.1607550979	-93.14238739	1.0
11	0	1.413589954	0.1823999882	-6.60443306	-0.17487517	-93.2387085	1.0
12	0	1.413589954	0.1823999882	-6.374796867	-0.1693688184	-93.20399475	1.0
13	0	1.413589954	0.1823999882	-6.282817841	-0.1704003662	-93.18911743	1.0
[LeftShoulder]
10	0.3649300039	1.825889945	-0.04271000251	-9.803806305	-8.426567078	3.607664824	1.0
11	0.3649300039	1.825889945	-0.04271000251	-9.822511673	-8.411308289	3.665381432	1.0
12	0.3649300039	1.825889945	-0.04271000251	-9.933208466	-8.352396011	3.673356056	1.0
13	0.3649300039	1.825889945	-0.04271000251	-9.883543968	-8.342312813	3.661607742	1.0
[LeftArm]
10	1.24003005	0	0	45.61995316	7.963017464	-80.71316528	1.0
11	1.24003005	0	0	45.70290375	7.985009193	-80.79328156	1.0
12	1.24003005	0	0	45.68263245	8.069560051	-80.79031372	1.0
13	1.24003005	0	0	45.54682922	8.073272705	-80.7833786	1.0
[LeftForeArm]
10	2.847419977	0	0	-12.90108109	-14.92400169	-3.394003153	1.0
11	2.847419977	0	0	-12.97152901	-14.96394444	-3.355544329	1.0
12	2.847419977	0	0	-12.85775852	-14.8959465	-3.448245525	1.0
13	2.847419977	0	0	-12.85636806	-14.79736042	-3.515035391	1.0
[LeftHand]
10	2.258270025	0	0	-13.27902222	-4.425448895	-1.727040648	1.0
11	2.258270025	0	0	-13.34765816	-4.479708195	-1.653954983	1.0
12	2.258270025	0	0	-13.24028111	-4.451630116	-1.759783506	1.0
13	2.258270025	0	0	-13.24553013	-4.459665775	-1.731685042	1.0
[RightShoulder]
10	-0.3646599948	1.825889945	-0.04271000251	-7.079393387	8.465766907	178.0952148	1.0
11	-0.3646599948	1.825889945	-0.04271000251	-7.194118977	8.44903183	178.1028442	1.0
12	-0.3646599948	1.825889945	-0.04271000251	-7.228187561	8.407883644	178.1006775	1.0
13	-0.3646599948	1.825889945	-0.04271000251	-7.201718807	8.385224342	178.0710297	1.0
[RightArm]
10	-1.24003005	0	0	47.40516663	-3.588021994	-97.2134552	1.0
11	-1.24003005	0	0	47.58055115	-3.643988848	-97.1910553	1.0
12	-1.24003005	0	0	47.62305069	-3.619870663	-97.15581512	1.0
13	-1.24003005	0	0	47.69658279	-3.575803041	-97.09368134	1.0
[RightForeArm]
10	-2.847419977	0	0	-1.541148901	15.00338936	178.9878235	1.0
11	-2.847419977	0	0	-1.57194221	14.99777508	178.9233704	1.0
12	-2.847419977	0	0	-1.567051768	15.0316925	178.9088287	1.0
13	-2.847419977	0	0	-1.624435425	15.096838	178.8391266	1.0
[RightHand]
10	-2.258270025	0	0	-1.667115927	8.167691231	176.1134338	1.0
11	-2.258270025	0	0	-1.700224876	8.158811569	176.2310791	1.0
12	-2.258270025	0	0	-1.699161053	8.201078415	176.1483612	1.0
13	-2.258270025	0	0	-1.752116799	8.227020264	176.0849152	1.0
[LeftUpLeg]
10	0.9119900465	0	0	12.73668385	4.380223274	93.02289581	1.0
11	0.9119900465	0	0	12.74588966	4.381483078	93.02336121	1.0
12	0.9119900465	0	0	12.75720882	4.412368298	93.02028656	1.0
13	0.9119900465	0	0	12.76885605	4.372280598	93.0194397	1.0
[LeftLeg]
10	0	-4.371409893	0	2.147066116	0.8032759428	87.82156372	1.0
11	0	-4.371409893	0	2.142402649	0.79744488	87.80619812	1.0
12	0	-4.371409893	0	2.106650352	0.7776546478	87.81074524	1.0
13	0	-4.371409893	0	2.088910103	0.7787996531	87.79728699	1.0
[LeftFoot]
10	0	-3.918009996	0	-102.0378494	115.6133499	-39.54766083	1.0
11	0	-3.918009996	0	-101.9917145	115.6309814	-39.47655106	1.0
12	0	-3.918009996	0	-102.0385666	115.6050262	-39.51858139	1.0
13	0	-3.918009996	0	-101.9851837	115.6208038	-39.45150757	1.0
[LeftToeBase]
10	0	-0.5927900076	1.367989898	0	0	0	1.0
11	0	-0.5927900076	1.367989898	0	0	0	1.0
12	0	-0.5927900076	1.367989898	0	0	0	1.0
13	0	-0.5927900076	1.367989898	0	0	0	1.0
[RightUpLeg]
10	-0.9119900465	0	0	11.54454994	-7.455513954	92.28692627	1.0
11	-0.9119900465	0	0	11.52222061	-7.432497978	92.28826904	1.0
12	-0.9119900465	0	0	11.50493622	-7.430012703	92.28536987	1.0
13	-0.9119900465	0	0	11.48777103	-7.405910015	92.29154205	1.0
[RightLeg]
10	0	-4.371409893	0	-0.06685888767	-5.480175018	90.53160095	1.0
11	0	-4.371409893	0	-0.02627834864	-5.460817814	90.51924133	1.0
12	0	-4.371409893	0	-0.008067851886	-5.462405682	90.51507568	1.0
13	0	-4.371409893	0	0.03535043076	-5.426549911	90.49877167	1.0
[RightFoot]
10	0	-3.918009996	0	52.61706924	72.65327454	106.0651245	1.0
11	0	-3.918009996	0	52.4892807	72.63655853	105.9694214	1.0
12	0	-3.918009996	0	52.49114227	72.62793732	106.0085373	1.0
13	0	-3.918009996	0	52.25774765	72.60575104	105.8046036	1.0
[RightToeBase]
10	0	-0.5927900076	1.367989898	0	0	0	1.0
11	0	-0.5927900076	1.367989898	0	0	0	1.0
12	0	-0.5927900076	1.367989898	0	0	0	1.0
13	0	-0.5927900076	1.367989898	0	0	0	1.0
[EndOfFile]
